<?xml version="1.0" encoding="UTF-8"?>
<!-- FrameLab 机型字标：Canon EOS 7D（官方矢量，来源 Wikimedia Commons，手工维护；gen-model-marks.mjs 不会覆盖） -->
<!DOCTYPE svg PUBLIC "-//W3C//DTD SVG 1.1//EN" "http://www.w3.org/Graphics/SVG/1.1/DTD/svg11.dtd">
<!-- Creator: CorelDRAW Home & Student X7 -->
<svg xmlns="http://www.w3.org/2000/svg" xml:space="preserve" width="247.7cm" height="199.744cm" version="1.1" style="shape-rendering:geometricPrecision; text-rendering:geometricPrecision; image-rendering:optimizeQuality; fill-rule:evenodd; clip-rule:evenodd"
viewBox="0 0 282674 227948"
 xmlns:xlink="http://www.w3.org/1999/xlink">
 <defs>
  <style type="text/css">
   <![CDATA[
    .fil0 {fill:black;fill-rule:nonzero}
   ]]>
  </style>
 </defs>
 <g id="Layer_x0020_1">
  <metadata id="CorelCorpID_0Corel-Layer"/>
  <path class="fil0" d="M111769 60256c609,6094 3325,9587 9740,11470 3979,1164 11506,1697 19825,1697 8330,0 15857,-533 19830,-1697 6421,-1883 9126,-5374 9741,-11470 576,-5810 622,-10140 622,-15932 0,-5798 -46,-10127 -622,-15943 -615,-6088 -3320,-9581 -9741,-11465 -3973,-1165 -11500,-1694 -19830,-1694 -8319,0 -15846,529 -19825,1694 -6415,1884 -9131,5377 -9740,11465 -577,5816 -624,10145 -624,15943 0,5792 47,10122 624,15932zm-19038 -15932c0,-5400 296,-11636 569,-16524 698,-12727 6571,-21149 17385,-24650 7088,-2296 15526,-3150 30649,-3150 15129,0 23569,854 30657,3150 10814,3501 16688,11923 17386,24650 271,4888 569,11124 569,16524 0,5395 -298,11625 -569,16518 -698,12730 -6572,21149 -17386,24652 -7088,2296 -15528,3155 -30657,3155 -15123,0 -23561,-859 -30649,-3155 -10814,-3503 -16687,-11922 -17385,-24652 -273,-4893 -569,-11123 -569,-16518zm124125 -41524c5304,-1257 18046,-2005 25166,-2005 12051,0 23471,546 37474,2177l0 16248c-14258,-2545 -24476,-3412 -38717,-3412 -5749,0 -10895,197 -15610,752 -6667,783 -8921,3887 -8921,9159 0,5270 2254,8374 8921,9161 5053,593 10596,757 16853,757l0 30c7278,163 17688,891 22357,2012 13235,3197 18295,12211 18295,24057 0,11843 -5060,20860 -18295,24057 -5308,1280 -18053,2044 -25161,2044 -15034,0 -25326,-551 -39422,-2166l0 -16248c14607,2605 24533,3404 39422,3404 6248,0 11791,-169 16849,-792 6664,-821 8916,-3881 8916,-9396 0,-5525 -2252,-8586 -8916,-9404 -5058,-619 -10601,-792 -16849,-792l0 -33c-7292,-157 -17699,-869 -22362,-1977 -13234,-3142 -18301,-12178 -18301,-23815 0,-11641 5067,-20676 18301,-23818zm-198340 32013c0,-1258 64,-5255 601,-7795 1318,-6299 4840,-8875 12657,-10025 4634,-677 9850,-932 19001,-932 8470,0 23888,938 33568,1850l0 -15516c-11007,-1051 -25462,-1597 -35730,-1597 -15127,0 -23559,858 -30651,3158 -10814,3501 -16692,11924 -17393,24644 -264,4893 -569,10319 -569,15712 0,5407 305,10831 569,15724 701,12727 6579,21144 17393,24650 7092,2295 15524,3151 30651,3151 10268,0 24723,-542 35730,-1591l0 -15515c-9680,905 -25098,1846 -33568,1846 -9151,0 -14367,-251 -19001,-932 -7817,-1148 -11339,-3726 -12657,-10028 -537,-2540 -601,-6538 -601,-7793l-3 -2240 64258 0 0 -15225 -64258 0 3 -1546zm187407 139594c-183,4551 -819,8789 -1905,12642l28771 0c814,-3908 1313,-8117 1463,-12642l-28329 0zm-24708 -40898c9002,1198 15391,5589 19402,12638l30015 0c-1598,-4788 -3644,-8990 -6079,-12638l-43338 0zm22597 20449c1089,3778 1768,7998 2037,12639l28338 0c-215,-4546 -724,-8753 -1505,-12639l-28870 0zm-61674 61353l0 12637 37365 0c14090,0 27434,-3987 37434,-12637l-74799 0zm75809 -89614c-9571,-8938 -22239,-12642 -34987,-12642l-40822 0 0 12642 75809 0zm-75809 20450l26991 0 0 -12638 -26991 0 0 12638zm0 61348l26991 0 0 -12638 -26991 0 0 12638zm58732 -12638c-3841,6857 -9923,11413 -18444,12638l41659 0c2651,-3671 4867,-7877 6551,-12638l-29766 0zm-58732 -28260l26991 0 0 -12639 -26991 0 0 12639zm0 20452l26991 0 0 -12642 -26991 0 0 12642zm-20840 -56412l-48191 97292 -18777 -142 47251 -97151 -50431 0 -37 -17583 70192 0 -7 17584z"/>
 </g>
</svg>
