<svg xmlns="http://www.w3.org/2000/svg" viewBox="0 0 684.9 279.1">
  <!-- FrameLab 机型字标：Nikon Z 6III（官方 Z 字形 + 官方数字合成，gen-model-marks.mjs 维护） -->
  <g fill="#000000">
  <path transform="translate(14.80 14.80) scale(1.00000)" d="M118.5,221.8999939l169.7000122-201V0h-277.5v24.7000008h159L0,225.6999969v21h291.5v-24.8000031H118.5z M253.3000031,24.5L86.6999969,221.8999939H34.7999954L201.4999847,24.7000008L253.3000031,24.5z"/>
  <path transform="translate(11.09 8.95) scale(0.78581)" d="M559.335999,214.397797c-24.850037,0-38.917908,18.582474-38.917908,41.968506 c0,19.787018,12.275757,44.06424,36.817322,44.06424c25.148743,0,37.12085-21.57431,37.12085-44.06424 C594.356262,236.87796,582.981506,214.397797,559.335999,214.397797 M612.316956,141.855118 c-10.777405-5.694672-23.650452-8.696152-37.116028-8.696152c-38.913025,0-57.769714,35.975006-58.372009,76.141586 l0.602295-0.293793c14.06781-13.793716,28.434326-19.194611,45.792725-19.194611 c40.41626,0,62.862122,28.478424,62.862122,65.956787c0,43.168137-29.036682,69.247269-67.053589,69.247269 c-58.37204,0-70.339264-52.760498-70.339264-100.423737c0-56.658127,18.558044-116.014374,84.710663-116.014374 c14.366577,0,35.622498,3.29541,43.099609,6.595749L612.316956,141.855118z"/>
  <path transform="translate(527.26 115.78) scale(1.00000)" d="M16.63797248031496,0h18.35914204724409a16.63797248031496,16.63797248031496 0 0 1 16.63797248031496,16.63797248031496v112.44974503937007a16.63797248031496,16.63797248031496 0 0 1 -16.63797248031496,16.63797248031496h-18.35914204724409a16.63797248031496,16.63797248031496 0 0 1 -16.63797248031496,-16.63797248031496v-112.44974503937007a16.63797248031496,16.63797248031496 0 0 1 16.63797248031496,-16.63797248031496z M80.60810805118109,0h18.35914204724409a16.63797248031496,16.63797248031496 0 0 1 16.63797248031496,16.63797248031496v112.44974503937007a16.63797248031496,16.63797248031496 0 0 1 -16.63797248031496,16.63797248031496h-18.35914204724409a16.63797248031496,16.63797248031496 0 0 1 -16.63797248031496,-16.63797248031496v-112.44974503937007a16.63797248031496,16.63797248031496 0 0 1 16.63797248031496,-16.63797248031496z M144.57824362204724,0h18.35914204724409a16.63797248031496,16.63797248031496 0 0 1 16.63797248031496,16.63797248031496v112.44974503937007a16.63797248031496,16.63797248031496 0 0 1 -16.63797248031496,16.63797248031496h-18.35914204724409a16.63797248031496,16.63797248031496 0 0 1 -16.63797248031496,-16.63797248031496v-112.44974503937007a16.63797248031496,16.63797248031496 0 0 1 16.63797248031496,-16.63797248031496z"/>

  </g>
</svg>
